# xmcd
#
# Track frame offsets:
#	150
#	15352
#	26602
#	40417
#	55829
#	70590
#	87688
#	102855
#	118212
#	136935
#	152184
#	166361
#
# Disc length: 2436 seconds
#
# Revision: 0
# Processed by: cddbd v1.5.2PL0 Copyright (c) Steve Scherf et al.
# Submitted via: dBpowerAMP V4.0
#
DISCID=9b09820c
DTITLE=Yan e Alex - Desacerto
DYEAR=2007
DGENRE=Country
TTITLE0=Agora eu sei
TTITLE1=Fui pro Interior
TTITLE2=Confissão
TTITLE3=Cuidado Menina
TTITLE4=Viola Dourada
TTITLE5=Desacerto
TTITLE6=Papo de escola
TTITLE7=To machocado
TTITLE8=Saudade
TTITLE9=Chance de outro
TTITLE10=Chega de sofrer
TTITLE11=A dois graus
EXTD=
EXTT0=
EXTT1=
EXTT2=
EXTT3=
EXTT4=
EXTT5=
EXTT6=
EXTT7=
EXTT8=
EXTT9=
EXTT10=
EXTT11=
PLAYORDER=
